<svg xmlns="http://www.w3.org/2000/svg" viewBox="0 0 480 400" role="img" aria-hidden="true" focusable="false">
  <defs>
    <linearGradient id="panel" x1="0" y1="0" x2="1" y2="1"><stop stop-color="#f8fcfb"/><stop offset="1" stop-color="#e8f5f1"/></linearGradient>
    <radialGradient id="core" cx="50%" cy="50%" r="50%"><stop stop-color="#d8f6ed" stop-opacity=".95"/><stop offset=".58" stop-color="#9edfd0" stop-opacity=".38"/><stop offset="1" stop-color="#087568" stop-opacity="0"/></radialGradient>
    <filter id="soft" x="-30%" y="-30%" width="160%" height="160%"><feGaussianBlur stdDeviation="9"/></filter>
    <clipPath id="frame"><rect x="25" y="22" width="430" height="356" rx="22"/></clipPath>
  </defs>
  <rect x="25" y="22" width="430" height="356" rx="22" fill="url(#panel)"/>
  <g clip-path="url(#frame)">
    <path d="M-20 105 C78 35 125 174 218 103 S359 34 500 111 M-20 128 C72 58 130 197 225 126 S370 57 500 134 M-20 286 C86 216 144 356 235 286 S369 214 500 289 M-20 310 C86 240 144 380 235 310 S369 238 500 313" fill="none" stroke="#087568" stroke-opacity=".10" stroke-width="1.2"/>
    <circle cx="240" cy="201" r="140" fill="#36b99b" fill-opacity=".10" filter="url(#soft)"/>
    <g transform="translate(240 201)" fill="none" stroke="#087568" stroke-linecap="round">
      <ellipse rx="139" ry="54" stroke-width="1.35" stroke-opacity=".22"/>
      <ellipse rx="139" ry="54" transform="rotate(20)" stroke-width="1.35" stroke-opacity=".22"/>
      <ellipse rx="139" ry="54" transform="rotate(40)" stroke-width="1.35" stroke-opacity=".22"/>
      <ellipse rx="139" ry="54" transform="rotate(60)" stroke-width="1.35" stroke-opacity=".22"/>
      <ellipse rx="139" ry="54" transform="rotate(80)" stroke-width="1.35" stroke-opacity=".22"/>
      <ellipse rx="139" ry="54" transform="rotate(100)" stroke-width="1.35" stroke-opacity=".22"/>
      <ellipse rx="139" ry="54" transform="rotate(120)" stroke-width="1.35" stroke-opacity=".22"/>
      <ellipse rx="139" ry="54" transform="rotate(140)" stroke-width="1.35" stroke-opacity=".22"/>
      <ellipse rx="139" ry="54" transform="rotate(160)" stroke-width="1.35" stroke-opacity=".22"/>
      <ellipse rx="97" ry="38" transform="rotate(10)" stroke-width="1" stroke-opacity=".34"/>
      <ellipse rx="97" ry="38" transform="rotate(40)" stroke-width="1" stroke-opacity=".34"/>
      <ellipse rx="97" ry="38" transform="rotate(70)" stroke-width="1" stroke-opacity=".34"/>
      <ellipse rx="97" ry="38" transform="rotate(100)" stroke-width="1" stroke-opacity=".34"/>
      <ellipse rx="97" ry="38" transform="rotate(130)" stroke-width="1" stroke-opacity=".34"/>
      <ellipse rx="97" ry="38" transform="rotate(160)" stroke-width="1" stroke-opacity=".34"/>
    </g>
    <circle cx="240" cy="201" r="81" fill="url(#core)"/>
    <g fill="none" stroke="#087568" stroke-linecap="round"><circle cx="240" cy="201" r="64" stroke-width="1.4" stroke-opacity=".48" stroke-dasharray="2 8"/><circle cx="240" cy="201" r="44" stroke-width="1.4" stroke-opacity=".62" stroke-dasharray="1 6"/><path d="M190 222 C208 180 227 169 240 201 S275 229 296 178" stroke-width="2.3" stroke-opacity=".82"/><path d="M185 183 C215 214 259 151 299 218" stroke-width="1.5" stroke-opacity=".58"/></g>
    <g fill="#f8fcfb" stroke="#087568" stroke-width="2"><circle cx="190" cy="222" r="6"/><circle cx="240" cy="201" r="8"/><circle cx="296" cy="178" r="6"/></g>
    <g fill="#20a78b"><circle cx="100" cy="153" r="4"/><circle cx="145" cy="285" r="3"/><circle cx="345" cy="283" r="4"/><circle cx="385" cy="127" r="3"/></g>
  </g>
  <rect x="25.75" y="22.75" width="428.5" height="354.5" rx="21.25" fill="none" stroke="#c6ded7" stroke-opacity=".85" stroke-width="1.5"/>
</svg>
